<svg width="24" height="23" viewBox="0 0 24 23" fill="none" xmlns="http://www.w3.org/2000/svg">
<path d="M9.36895 11.501V22.721H3.46895C3.02275 22.7205 2.59498 22.543 2.27947 22.2275C1.96396 21.912 1.78647 21.4842 1.78594 21.038V11.444C1.97055 11.4818 2.1585 11.5009 2.34695 11.501H9.36895ZM10.4909 11.501V22.721H13.8569V11.501H10.4909ZM21.9909 11.501H14.9689V22.721H20.8689C21.3151 22.7205 21.7429 22.543 22.0584 22.2275C22.3739 21.912 22.5514 21.4842 22.5519 21.038V11.444C22.3657 11.4822 22.1761 11.5013 21.9859 11.501H21.9909ZM23.6689 6.45201V8.69601C23.6689 9.14256 23.4917 9.57084 23.1761 9.88678C22.8606 10.2027 22.4325 10.3805 21.9859 10.381H2.35194C1.9054 10.3805 1.47733 10.2027 1.16176 9.88678C0.846197 9.57084 0.668945 9.14256 0.668945 8.69601V6.45201C0.669475 6.00582 0.84696 5.57804 1.16247 5.26254C1.47798 4.94703 1.90575 4.76954 2.35194 4.76901H7.68694C7.24151 4.17466 7.05043 3.42771 7.15573 2.69247C7.26103 1.95724 7.6541 1.29394 8.24845 0.848513C8.8428 0.403082 9.58975 0.211999 10.325 0.317301C11.0602 0.422603 11.7235 0.815662 12.1689 1.41001C12.6144 0.815662 13.2777 0.422603 14.0129 0.317301C14.7481 0.211999 15.4951 0.403082 16.0894 0.848513C16.6838 1.29394 17.0769 1.95724 17.1822 2.69247C17.2875 3.42771 17.0964 4.17466 16.6509 4.76901H21.9859C22.4321 4.76954 22.8599 4.94703 23.1754 5.26254C23.4909 5.57804 23.6684 6.00582 23.6689 6.45201ZM12.7299 3.08101V4.76401H14.4129C14.7458 4.76401 15.0712 4.66531 15.348 4.48038C15.6247 4.29545 15.8405 4.0326 15.9678 3.72507C16.0952 3.41754 16.1285 3.07915 16.0636 2.75268C15.9987 2.42621 15.8384 2.12632 15.603 1.89095C15.3676 1.65558 15.0678 1.49529 14.7413 1.43035C14.4148 1.36541 14.0764 1.39874 13.7689 1.52612C13.4614 1.65351 13.1985 1.86922 13.0136 2.14599C12.8287 2.42276 12.7299 2.74815 12.7299 3.08101ZM9.92994 4.76401H11.6129V3.08101C11.6129 2.74815 11.5142 2.42276 11.3293 2.14599C11.1444 1.86922 10.8815 1.65351 10.574 1.52612C10.2665 1.39874 9.92808 1.36541 9.60161 1.43035C9.27514 1.49529 8.97526 1.65558 8.73988 1.89095C8.50451 2.12632 8.34422 2.42621 8.27928 2.75268C8.21434 3.07915 8.24767 3.41754 8.37506 3.72507C8.50244 4.0326 8.71815 4.29545 8.99492 4.48038C9.27169 4.66531 9.59708 4.76401 9.92994 4.76401Z" fill="white"/>
</svg>
