<svg width="23" height="24" viewBox="0 0 23 24" fill="none" xmlns="http://www.w3.org/2000/svg">
<path d="M6.75787 6.2588C6.55286 6.2588 6.35625 6.17736 6.21129 6.03239C6.06632 5.88743 5.98488 5.69081 5.98488 5.4858V0.800798C5.98114 0.697014 5.99835 0.593541 6.03549 0.496557C6.07263 0.399573 6.12893 0.311068 6.20103 0.236325C6.27313 0.161582 6.35957 0.102134 6.45515 0.06153C6.55074 0.0209265 6.65351 0 6.75737 0C6.86122 0 6.96401 0.0209265 7.0596 0.06153C7.15518 0.102134 7.2416 0.161582 7.3137 0.236325C7.3858 0.311068 7.4421 0.399573 7.47924 0.496557C7.51638 0.593541 7.53361 0.697014 7.52987 0.800798V5.4868C7.52987 5.69164 7.44856 5.8881 7.30381 6.03304C7.15907 6.17798 6.96271 6.25953 6.75787 6.2598V6.2588Z" fill="white"/>
<path d="M16.8379 6.2598C16.6329 6.2598 16.4363 6.17836 16.2914 6.03339C16.1464 5.88843 16.065 5.69181 16.065 5.4868V0.800798C16.0612 0.697014 16.0784 0.593541 16.1156 0.496557C16.1527 0.399573 16.209 0.311068 16.2811 0.236325C16.3532 0.161582 16.4396 0.102134 16.5352 0.06153C16.6308 0.0209265 16.7336 0 16.8374 0C16.9413 0 17.0441 0.0209265 17.1397 0.06153C17.2352 0.102134 17.3217 0.161582 17.3938 0.236325C17.4659 0.311068 17.5222 0.399573 17.5593 0.496557C17.5964 0.593541 17.6137 0.697014 17.6099 0.800798V5.4868C17.6099 5.69164 17.5286 5.8881 17.3839 6.03304C17.2391 6.17798 17.0428 6.25953 16.8379 6.2598V6.2598Z" fill="white"/>
<path d="M0.631836 10.6018V20.0938C0.683389 20.9184 1.05851 21.6894 1.67558 22.2388C2.29266 22.7883 3.10176 23.0719 3.92684 23.0278H19.6688C20.4939 23.0719 21.303 22.7883 21.9201 22.2388C22.5372 21.6894 22.9123 20.9184 22.9638 20.0938V10.6018H0.631836Z" fill="white"/>
<path d="M22.9618 9.2008V5.6668C22.9605 4.79366 22.6132 3.95664 21.996 3.33905C21.3788 2.72146 20.5419 2.37365 19.6688 2.3718H19.1568V5.4868C19.1568 6.10144 18.9126 6.6909 18.478 7.12552C18.0434 7.56013 17.454 7.8043 16.8393 7.8043C16.2247 7.8043 15.6352 7.56013 15.2006 7.12552C14.766 6.6909 14.5218 6.10144 14.5218 5.4868V2.3718H9.07481V5.4868C9.07481 6.10144 8.83065 6.6909 8.39603 7.12552C7.96142 7.56013 7.37195 7.8043 6.75731 7.8043C6.14267 7.8043 5.55321 7.56013 5.11859 7.12552C4.68398 6.6909 4.43981 6.10144 4.43981 5.4868V2.3718H3.92781C3.05433 2.37312 2.217 2.7207 1.59936 3.33834C0.98171 3.95599 0.634135 4.79332 0.632812 5.6668V9.2008H22.9638H22.9618Z" fill="white"/>
</svg>
