<svg width="37" height="34" viewBox="0 0 37 34" fill="none" xmlns="http://www.w3.org/2000/svg">
<path fill-rule="evenodd" clip-rule="evenodd" d="M13.7061 32.71C13.2561 32.53 12.9861 32.08 13.1661 31.63C13.3461 31.18 13.7961 31 14.2461 31.09C15.0561 31.36 15.9561 31.63 16.8561 31.81C17.7561 31.99 18.5661 32.08 19.5561 32.08C23.6061 32.08 27.2961 30.46 29.9961 27.76C32.6961 25.06 34.3161 21.37 34.3161 17.32C34.3161 13.27 32.6961 9.58001 29.9961 6.88001C27.2961 4.18001 23.6061 2.56001 19.5561 2.56001C15.5961 2.56001 11.9961 4.09001 9.29605 6.70001C6.59606 9.31001 4.88605 12.82 4.79605 16.78C4.79605 17.23 4.34605 17.59 3.89605 17.59H2.99605L7.04605 21.91L11.0961 17.59H10.1961C9.74605 17.59 9.29605 17.23 9.29605 16.69V16.6C9.65605 11.29 14.0661 7.06001 19.5561 7.06001C25.2261 7.06001 29.8161 11.65 29.8161 17.32C29.8161 22.99 25.2261 27.58 19.5561 27.58C15.2361 27.58 11.6361 24.97 10.1061 21.28L7.67605 23.8C7.31605 24.16 6.77605 24.07 6.41605 23.8L0.476055 17.41C0.296055 17.23 0.206055 17.05 0.206055 16.78C0.206055 16.33 0.566055 15.97 1.10605 15.97H3.17605C3.53605 11.92 5.33605 8.23001 8.12605 5.53001C11.0061 2.65001 15.0561 0.850006 19.5561 0.850006C24.1461 0.850006 28.2861 2.65001 31.2561 5.71001C34.2261 8.68001 36.1161 12.82 36.1161 17.32C36.1161 21.82 34.2261 25.96 31.2561 28.93C28.2861 31.9 24.1461 33.79 19.5561 33.79C18.5661 33.79 17.5761 33.7 16.5861 33.52C15.5961 33.34 14.6061 33.07 13.7061 32.71ZM8.84606 27.85C9.29605 27.85 9.65605 28.21 9.65605 28.66C9.65605 29.11 9.29605 29.47 8.84606 29.47C8.39606 29.47 8.03605 29.11 8.03605 28.66C8.03605 28.21 8.39606 27.85 8.84606 27.85ZM11.0961 29.65C11.5461 29.65 11.9061 30.01 11.9061 30.46C11.9061 30.91 11.5461 31.27 11.0961 31.27C10.6461 31.27 10.2861 30.91 10.2861 30.46C10.2861 30.01 10.6461 29.65 11.0961 29.65ZM22.9761 11.92L22.1661 13H20.6361C20.8161 13.18 20.9061 13.36 20.9961 13.63C21.0861 13.9 21.1761 14.08 21.1761 14.44H22.8861L22.1661 15.52H21.2661C21.1761 15.88 21.0861 16.24 20.9061 16.51C20.7261 16.78 20.4561 17.05 20.1861 17.32C19.9161 17.5 19.5561 17.68 19.1961 17.86C18.8361 17.95 18.3861 18.04 17.8461 18.04L22.3461 22.81H20.4561L16.1361 18.13V17.05H17.2161C17.5761 17.05 17.8461 17.05 18.1161 16.96C18.3861 16.87 18.6561 16.78 18.9261 16.69C19.1061 16.51 19.3761 16.42 19.4661 16.24C19.6461 16.06 19.7361 15.88 19.7361 15.61H15.6861L16.4061 14.53H19.7361C19.6461 14.08 19.3761 13.81 19.0161 13.54C18.6561 13.27 18.1161 13.18 17.4861 13.18H15.6861L16.4061 12.1H22.9761V11.92Z" fill="white"/>
</svg>
