<svg width="25" height="25" viewBox="0 0 25 25" fill="none" xmlns="http://www.w3.org/2000/svg">
<path d="M12.7227 0.558006C10.3821 0.558006 8.09415 1.25206 6.14806 2.55239C4.20197 3.85273 2.68517 5.70095 1.78949 7.86333C0.893799 10.0257 0.659447 12.4051 1.11606 14.7007C1.57268 16.9963 2.69976 19.1049 4.35478 20.7599C6.00979 22.4149 8.11841 23.542 10.414 23.9986C12.7095 24.4552 15.089 24.2209 17.2514 23.3252C19.4137 22.4295 21.262 20.9127 22.5623 18.9666C23.8626 17.0205 24.5567 14.7325 24.5567 12.392C24.5532 9.25449 23.3053 6.24647 21.0868 4.02791C18.8682 1.80935 15.8602 0.561447 12.7227 0.558006V0.558006ZM18.3507 18.513C18.2592 18.6046 18.1505 18.6773 18.0309 18.7269C17.9113 18.7765 17.7831 18.802 17.6537 18.802C17.5242 18.802 17.396 18.7765 17.2764 18.7269C17.1568 18.6773 17.0482 18.6046 16.9567 18.513L12.0257 13.582C11.9336 13.4903 11.8606 13.3811 11.811 13.261C11.7614 13.1408 11.7361 13.012 11.7367 12.882V6.47501C11.7367 6.2135 11.8406 5.96271 12.0255 5.7778C12.2104 5.59289 12.4612 5.48901 12.7227 5.48901C12.9842 5.48901 13.235 5.59289 13.4199 5.7778C13.6048 5.96271 13.7087 6.2135 13.7087 6.47501V12.475L18.3507 17.117C18.4426 17.2085 18.5155 17.3173 18.5653 17.4371C18.6151 17.5569 18.6407 17.6853 18.6407 17.815C18.6407 17.9447 18.6151 18.0731 18.5653 18.1929C18.5155 18.3127 18.4426 18.4215 18.3507 18.513Z" fill="white"/>
</svg>
